<svg width="600" height="520" viewBox="0 0 600 520" fill="none" xmlns="http://www.w3.org/2000/svg">
<g clip-path="url(#clip0_135_970)">
<path d="M303.25 120.195L375.893 297.23C380.319 308.016 392.651 313.172 403.437 308.746L580.472 236.102C591.258 231.677 596.414 219.345 591.988 208.559L519.345 31.5234C514.919 20.7374 502.587 15.5815 491.801 20.0074L314.766 92.651C303.98 97.0769 298.824 109.409 303.25 120.195Z" fill="#F2F6FF"/>
<path d="M199.11 442.481L166.146 322.642C163.054 311.401 151.434 304.795 140.193 307.887L20.3539 340.851C9.11273 343.943 2.50659 355.563 5.59872 366.804L38.5629 486.643C41.655 497.884 53.2744 504.49 64.5156 501.398L184.355 468.434C195.596 465.342 202.202 453.722 199.11 442.481Z" fill="#FAFAFA"/>
<path d="M265.421 141.566L340.584 240.554C347.635 249.839 360.878 251.651 370.163 244.6L469.15 169.437C478.436 162.387 480.247 149.144 473.197 139.859L398.034 40.8712C390.984 31.5859 377.741 29.7742 368.456 36.8247L269.468 111.988C260.183 119.038 258.371 132.281 265.421 141.566Z" fill="#E5EEFF"/>
<g filter="url(#filter0_d_135_970)">
<path fill-rule="evenodd" clip-rule="evenodd" d="M144.41 406.35L150.31 404.25L134.46 395.54L139.08 413.02L142.54 407.81L146.69 413.11L148.56 411.65L144.41 406.35Z" fill="white"/>
<path d="M145.14 406.56L150.46 404.66L151.38 404.34L150.52 403.86L134.68 395.15L133.78 394.65L134.04 395.65L138.66 413.13L138.91 414.08L139.45 413.27L142.57 408.56L146.34 413.38L146.61 413.73L146.96 413.46L148.83 411.99L149.17 411.72L148.9 411.38L145.14 406.56Z" stroke="black" stroke-opacity="0.8" stroke-width="0.88"/>
</g>
<path d="M66.5 106.5H529.5V430.5H66.5V106.5Z" fill="#F4F4F4" stroke="#E8E8E8"/>
<path d="M67 107H529V138H67V107Z" fill="white"/>
<g filter="url(#filter1_d_135_970)">
<path d="M112.41 192.4H475.35V426.31H112.41V192.4Z" fill="white"/>
</g>
<path d="M143.4 228.75C143.4 227.997 143.699 227.275 144.232 226.742C144.764 226.209 145.487 225.91 146.24 225.91H372.6C373.325 225.953 374.007 226.272 374.505 226.8C375.004 227.329 375.281 228.029 375.281 228.755C375.281 229.482 375.004 230.181 374.505 230.71C374.007 231.239 373.325 231.557 372.6 231.6H146.24C145.865 231.601 145.494 231.529 145.148 231.386C144.801 231.243 144.487 231.033 144.222 230.768C143.957 230.503 143.747 230.189 143.604 229.842C143.461 229.496 143.389 229.125 143.39 228.75H143.4ZM143.4 243.93C143.4 243.177 143.699 242.455 144.232 241.922C144.764 241.389 145.487 241.09 146.24 241.09H397.89C398.278 241.067 398.666 241.124 399.031 241.256C399.396 241.389 399.731 241.595 400.013 241.861C400.296 242.128 400.521 242.449 400.675 242.806C400.829 243.162 400.909 243.547 400.909 243.935C400.909 244.324 400.829 244.708 400.675 245.065C400.521 245.421 400.296 245.743 400.013 246.009C399.731 246.276 399.396 246.481 399.031 246.614C398.666 246.747 398.278 246.803 397.89 246.78H146.24C145.865 246.781 145.494 246.709 145.148 246.566C144.801 246.423 144.487 246.213 144.222 245.948C143.957 245.683 143.747 245.369 143.604 245.022C143.461 244.676 143.389 244.305 143.39 243.93H143.4ZM143.4 260.37C143.4 259.617 143.699 258.895 144.232 258.362C144.764 257.829 145.487 257.53 146.24 257.53H328.34C329.065 257.573 329.747 257.892 330.245 258.42C330.744 258.949 331.021 259.648 331.021 260.375C331.021 261.102 330.744 261.801 330.245 262.33C329.747 262.859 329.065 263.177 328.34 263.22H146.24C145.865 263.221 145.494 263.149 145.148 263.006C144.801 262.863 144.487 262.653 144.222 262.388C143.957 262.123 143.747 261.809 143.604 261.462C143.461 261.116 143.389 260.745 143.39 260.37H143.4ZM143.4 308.43C143.399 308.056 143.471 307.686 143.613 307.34C143.755 306.995 143.964 306.68 144.228 306.415C144.492 306.151 144.806 305.941 145.151 305.797C145.496 305.654 145.866 305.58 146.24 305.58H442.15C442.524 305.58 442.895 305.654 443.241 305.797C443.586 305.94 443.901 306.15 444.165 306.415C444.43 306.68 444.64 306.994 444.783 307.34C444.926 307.685 445 308.056 445 308.43C445 308.804 444.926 309.175 444.783 309.521C444.64 309.867 444.43 310.181 444.165 310.445C443.901 310.71 443.586 310.92 443.241 311.063C442.895 311.206 442.524 311.28 442.15 311.28H146.24C145.865 311.281 145.494 311.209 145.148 311.066C144.801 310.923 144.487 310.713 144.222 310.448C143.957 310.183 143.747 309.869 143.604 309.522C143.461 309.176 143.389 308.805 143.39 308.43H143.4ZM143.4 321.7C143.4 320.947 143.699 320.225 144.232 319.692C144.764 319.159 145.487 318.86 146.24 318.86H429.5C430.254 318.86 430.978 319.16 431.512 319.693C432.045 320.227 432.345 320.951 432.345 321.705C432.345 322.46 432.045 323.183 431.512 323.717C430.978 324.25 430.254 324.55 429.5 324.55H146.24C145.865 324.551 145.494 324.479 145.148 324.336C144.801 324.193 144.487 323.983 144.222 323.718C143.957 323.453 143.747 323.139 143.604 322.792C143.461 322.446 143.389 322.075 143.39 321.7H143.4ZM143.4 334.98C143.4 334.227 143.699 333.505 144.232 332.972C144.764 332.439 145.487 332.14 146.24 332.14H435.83C436.218 332.117 436.606 332.174 436.971 332.306C437.336 332.439 437.671 332.645 437.953 332.911C438.236 333.178 438.461 333.499 438.615 333.856C438.769 334.212 438.849 334.597 438.849 334.985C438.849 335.374 438.769 335.758 438.615 336.115C438.461 336.471 438.236 336.793 437.953 337.059C437.671 337.326 437.336 337.531 436.971 337.664C436.606 337.797 436.218 337.853 435.83 337.83H146.23C145.856 337.83 145.486 337.756 145.141 337.613C144.796 337.47 144.482 337.26 144.218 336.995C143.954 336.73 143.745 336.416 143.603 336.07C143.461 335.724 143.389 335.354 143.39 334.98H143.4ZM143.4 348.26C143.4 347.507 143.699 346.785 144.232 346.252C144.764 345.719 145.487 345.42 146.24 345.42H435.83C436.218 345.397 436.606 345.454 436.971 345.586C437.336 345.719 437.671 345.925 437.953 346.191C438.236 346.458 438.461 346.779 438.615 347.136C438.769 347.492 438.849 347.877 438.849 348.265C438.849 348.654 438.769 349.038 438.615 349.395C438.461 349.751 438.236 350.073 437.953 350.339C437.671 350.606 437.336 350.811 436.971 350.944C436.606 351.077 436.218 351.133 435.83 351.11H146.23C145.856 351.11 145.486 351.036 145.141 350.893C144.796 350.75 144.482 350.54 144.218 350.275C143.954 350.01 143.745 349.696 143.603 349.35C143.461 349.004 143.389 348.634 143.39 348.26H143.4ZM143.4 361.54C143.399 361.166 143.471 360.796 143.613 360.45C143.755 360.105 143.964 359.79 144.228 359.526C144.492 359.261 144.806 359.051 145.151 358.907C145.496 358.764 145.866 358.69 146.24 358.69H416.86C417.616 358.69 418.341 358.99 418.875 359.525C419.41 360.059 419.71 360.784 419.71 361.54C419.71 362.296 419.41 363.021 418.875 363.555C418.341 364.09 417.616 364.39 416.86 364.39H146.24C145.865 364.391 145.494 364.319 145.148 364.176C144.801 364.033 144.487 363.823 144.222 363.558C143.957 363.293 143.747 362.979 143.604 362.632C143.461 362.286 143.389 361.915 143.39 361.54H143.4ZM143.4 374.81C143.4 374.057 143.699 373.335 144.232 372.802C144.764 372.269 145.487 371.97 146.24 371.97H416.86C417.248 371.947 417.636 372.004 418.001 372.136C418.366 372.269 418.701 372.475 418.983 372.741C419.266 373.008 419.491 373.329 419.645 373.686C419.799 374.042 419.879 374.427 419.879 374.815C419.879 375.204 419.799 375.588 419.645 375.945C419.491 376.301 419.266 376.623 418.983 376.889C418.701 377.156 418.366 377.361 418.001 377.494C417.636 377.627 417.248 377.683 416.86 377.66H146.24C145.865 377.661 145.494 377.589 145.148 377.446C144.801 377.303 144.487 377.093 144.222 376.828C143.957 376.563 143.747 376.249 143.604 375.902C143.461 375.556 143.389 375.185 143.39 374.81H143.4ZM143.4 388.1C143.399 387.726 143.471 387.356 143.613 387.01C143.755 386.665 143.964 386.35 144.228 386.086C144.492 385.821 144.806 385.611 145.151 385.467C145.496 385.324 145.866 385.25 146.24 385.25H416.86C417.614 385.25 418.338 385.55 418.872 386.083C419.405 386.617 419.705 387.341 419.705 388.095C419.705 388.85 419.405 389.573 418.872 390.107C418.338 390.64 417.614 390.94 416.86 390.94H146.24C145.865 390.941 145.494 390.869 145.148 390.726C144.801 390.583 144.487 390.373 144.222 390.108C143.957 389.843 143.747 389.529 143.604 389.182C143.461 388.836 143.389 388.465 143.39 388.09L143.4 388.1ZM143.4 401.37C143.4 400.617 143.699 399.895 144.232 399.362C144.764 398.829 145.487 398.53 146.24 398.53H416.86C417.248 398.507 417.636 398.564 418.001 398.696C418.366 398.829 418.701 399.035 418.983 399.301C419.266 399.568 419.491 399.889 419.645 400.246C419.799 400.602 419.879 400.987 419.879 401.375C419.879 401.764 419.799 402.148 419.645 402.505C419.491 402.861 419.266 403.183 418.983 403.449C418.701 403.716 418.366 403.921 418.001 404.054C417.636 404.187 417.248 404.243 416.86 404.22H146.24C145.865 404.221 145.494 404.149 145.148 404.006C144.801 403.863 144.487 403.653 144.222 403.388C143.957 403.123 143.747 402.809 143.604 402.462C143.461 402.116 143.389 401.745 143.39 401.37H143.4Z" fill="#F4F4F4"/>
<path d="M67 139H529V170H67V139Z" fill="white"/>
<mask id="mask0_135_970" style="mask-type:luminance" maskUnits="userSpaceOnUse" x="459" y="145" width="65" height="20">
<path d="M459.4 145.67H523.71V164.59H459.4V145.67Z" fill="white"/>
</mask>
<g mask="url(#mask0_135_970)">
<path fill-rule="evenodd" clip-rule="evenodd" d="M467.44 155.72L467.11 156.08L465.08 153.95L467.11 151.82L467.44 152.18L465.98 153.71H469.81C470.563 153.71 471.285 154.01 471.818 154.542C472.351 155.075 472.65 155.797 472.65 156.55C472.65 157.304 472.351 158.026 471.818 158.558C471.285 159.091 470.563 159.39 469.81 159.39H467.44V158.92H469.81C470.411 158.881 470.974 158.615 471.385 158.176C471.797 157.737 472.026 157.157 472.026 156.555C472.026 155.953 471.797 155.374 471.385 154.935C470.974 154.496 470.411 154.229 469.81 154.19H465.98L467.44 155.72Z" fill="#1A1A1A"/>
<path d="M461.3 146.15H476.43V145.2H461.29V146.15H461.3ZM477.85 147.56V162.7H478.79V147.57H477.85V147.56ZM476.43 164.12H461.29V165.06H476.43V164.12ZM459.87 162.7V147.57H458.93V162.7H459.87ZM461.29 164.12C460.51 164.12 459.87 163.48 459.87 162.7H458.93C458.93 164 459.99 165.06 461.29 165.06V164.12ZM477.85 162.7C477.85 163.48 477.21 164.12 476.43 164.12V165.06C477.73 165.06 478.79 164 478.79 162.7H477.85ZM476.43 146.15C477.21 146.15 477.85 146.78 477.85 147.56H478.79C478.79 146.26 477.73 145.2 476.43 145.2V146.15ZM461.29 145.2C460.663 145.203 460.063 145.454 459.621 145.898C459.178 146.342 458.93 146.943 458.93 147.57H459.87C459.87 146.78 460.51 146.15 461.29 146.15V145.2Z" fill="#E8E8E8"/>
<path fill-rule="evenodd" clip-rule="evenodd" d="M494.44 154.19H490.62C489.994 154.19 489.394 154.439 488.951 154.882C488.509 155.324 488.26 155.924 488.26 156.55C488.26 157.176 488.509 157.776 488.951 158.219C489.394 158.662 489.994 158.91 490.62 158.91H492.98V159.39H490.61C489.857 159.39 489.134 159.091 488.602 158.558C488.069 158.026 487.77 157.304 487.77 156.55C487.77 155.797 488.069 155.075 488.602 154.542C489.134 154.01 489.857 153.71 490.61 153.71H494.44L492.98 152.18L493.32 151.82L495.34 153.95L493.32 156.08L492.98 155.72L494.44 154.19Z" fill="#1A1A1A"/>
<path d="M484 146.15H499.13V145.2H483.99V146.15H484ZM500.55 147.56V162.7H501.49V147.57H500.55V147.56ZM499.13 164.12H483.99V165.06H499.13V164.12ZM482.57 162.7V147.57H481.63V162.7H482.57ZM483.99 164.12C483.21 164.12 482.57 163.48 482.57 162.7H481.63C481.63 164 482.69 165.06 483.99 165.06V164.12ZM500.55 162.7C500.55 163.48 499.91 164.12 499.13 164.12V165.06C500.43 165.06 501.49 164 501.49 162.7H500.55ZM499.13 146.15C499.91 146.15 500.55 146.78 500.55 147.56H501.49C501.49 146.26 500.43 145.2 499.13 145.2V146.15ZM483.99 145.2C483.679 145.2 483.371 145.262 483.084 145.381C482.797 145.5 482.537 145.675 482.318 145.895C482.098 146.115 481.925 146.377 481.807 146.664C481.689 146.951 481.629 147.259 481.63 147.57H482.57C482.57 146.78 483.21 146.15 483.99 146.15V145.2Z" fill="#E8E8E8"/>
<path fill-rule="evenodd" clip-rule="evenodd" d="M516.08 157.06L518.51 159.49L518.14 159.86L515.71 157.43C515.209 157.861 514.595 158.139 513.941 158.231C513.286 158.324 512.619 158.226 512.019 157.95C511.419 157.674 510.91 157.231 510.554 156.675C510.198 156.118 510.009 155.471 510.01 154.81C510.006 154.251 510.139 153.698 510.396 153.201C510.653 152.704 511.026 152.276 511.485 151.955C511.943 151.634 512.473 151.429 513.028 151.357C513.583 151.286 514.147 151.35 514.672 151.545C515.197 151.739 515.667 152.058 516.042 152.474C516.416 152.89 516.684 153.391 516.822 153.934C516.961 154.476 516.965 155.044 516.836 155.588C516.707 156.133 516.447 156.638 516.08 157.06ZM513.46 157.73C513.858 157.754 514.257 157.695 514.633 157.559C515.008 157.423 515.351 157.211 515.641 156.937C515.932 156.663 516.163 156.333 516.321 155.966C516.479 155.6 516.561 155.205 516.561 154.805C516.561 154.406 516.479 154.011 516.321 153.645C516.163 153.278 515.932 152.948 515.641 152.674C515.351 152.4 515.008 152.188 514.633 152.052C514.257 151.916 513.858 151.857 513.46 151.88C512.714 151.924 512.012 152.251 511.499 152.795C510.987 153.339 510.701 154.058 510.701 154.805C510.701 155.553 510.987 156.272 511.499 156.816C512.012 157.36 512.714 157.687 513.46 157.73Z" fill="#1A1A1A"/>
<path d="M506.7 146.15H521.83V145.2H506.69V146.15H506.7ZM523.24 147.56V162.7H524.19V147.57H523.24V147.56ZM521.83 164.12H506.69V165.06H521.83V164.12ZM505.27 162.7V147.57H504.33V162.7H505.27ZM506.69 164.12C505.91 164.12 505.27 163.48 505.27 162.7H504.33C504.33 164 505.39 165.06 506.69 165.06V164.12ZM523.24 162.7C523.24 163.48 522.61 164.12 521.83 164.12V165.06C523.13 165.06 524.19 164 524.19 162.7H523.24ZM521.83 146.15C522.61 146.15 523.24 146.78 523.24 147.56H524.19C524.19 146.26 523.13 145.2 521.82 145.2V146.15H521.83ZM506.69 145.2C506.379 145.2 506.071 145.262 505.784 145.381C505.497 145.5 505.237 145.675 505.018 145.895C504.798 146.115 504.625 146.377 504.507 146.664C504.389 146.951 504.329 147.259 504.33 147.57H505.27C505.27 146.78 505.91 146.15 506.69 146.15V145.2Z" fill="#E8E8E8"/>
</g>
<mask id="mask1_135_970" style="mask-type:luminance" maskUnits="userSpaceOnUse" x="72" y="145" width="153" height="20">
<path d="M72.6799 145.67H224.01V164.59H72.6799V145.67Z" fill="white"/>
</mask>
<g mask="url(#mask1_135_970)">
<path d="M89.7099 145.67H74.5699C73.5261 145.67 72.6799 146.516 72.6799 147.56V162.7C72.6799 163.744 73.5261 164.59 74.5699 164.59H89.7099C90.7537 164.59 91.5999 163.744 91.5999 162.7V147.56C91.5999 146.516 90.7537 145.67 89.7099 145.67Z" fill="#E5EEFF"/>
<path fill-rule="evenodd" clip-rule="evenodd" d="M78.8298 150.88L80.3998 158.12L82.0598 157L83.7898 159.39L85.4498 158.27L83.7098 155.89L85.3698 154.77L78.8298 150.87V150.88Z" fill="#1A1A1A"/>
<path d="M112.41 145.67H97.2699C96.2261 145.67 95.3799 146.516 95.3799 147.56V162.7C95.3799 163.744 96.2261 164.59 97.2699 164.59H112.41C113.454 164.59 114.3 163.744 114.3 162.7V147.56C114.3 146.516 113.454 145.67 112.41 145.67Z" fill="#F4F4F4"/>
<path d="M109.54 152.36L109.51 152.29C109.109 151.498 108.464 150.857 107.67 150.46L107.61 150.43C107.569 150.41 107.523 150.403 107.479 150.41C107.434 150.417 107.392 150.438 107.36 150.47L100.94 156.89C100.924 156.904 100.911 156.921 100.9 156.94V156.96L100.88 156.98L100.35 158.8L100.12 159.58C100.11 159.617 100.11 159.656 100.12 159.694C100.13 159.731 100.149 159.765 100.177 159.793C100.204 159.82 100.238 159.84 100.276 159.85C100.313 159.86 100.353 159.86 100.39 159.85L102.99 159.09L103 159.08H103.02V159.07C103.042 159.06 103.063 159.046 103.08 159.03L109.5 152.61C109.532 152.577 109.552 152.536 109.56 152.491C109.567 152.446 109.56 152.4 109.54 152.36ZM102.98 158.52C102.615 157.883 102.087 157.355 101.45 156.99L106.63 151.8C107.285 152.144 107.821 152.677 108.17 153.33L102.97 158.52H102.98ZM101.31 158.87C101.31 158.76 101.21 158.67 101.09 158.67L100.84 158.66L101.22 157.36C101.8 157.69 102.28 158.17 102.61 158.75L101.31 159.13V158.87ZM108.48 153.01C108.113 152.377 107.585 151.852 106.95 151.49L107.55 150.89C108.2 151.233 108.732 151.762 109.08 152.41L108.48 153.01Z" fill="#363B3E"/>
<path d="M102.98 158.52C102.614 157.883 102.086 157.355 101.45 156.99L106.63 151.8C107.281 152.146 107.814 152.679 108.16 153.33L102.98 158.52ZM101.31 158.87C101.31 158.76 101.21 158.67 101.09 158.67L100.84 158.66L101.22 157.36C101.8 157.689 102.28 158.169 102.61 158.75L101.31 159.13V158.87ZM108.48 153.01C108.113 152.377 107.585 151.852 106.95 151.49L107.55 150.89C108.199 151.233 108.732 151.762 109.08 152.41L108.48 153.01Z" fill="white"/>
<path d="M144.56 145.67H119.97C118.926 145.67 118.08 146.516 118.08 147.56V162.7C118.08 163.744 118.926 164.59 119.97 164.59H144.56C145.604 164.59 146.45 163.744 146.45 162.7V147.56C146.45 146.516 145.604 145.67 144.56 145.67Z" fill="#F4F4F4"/>
<path fill-rule="evenodd" clip-rule="evenodd" d="M127.15 158.46L131.45 152.08L129.39 150.71L123.85 156.39C123.97 157.24 123.89 157.99 123.61 158.61L124.71 159.34C125.22 158.87 126.26 158.64 127.15 158.46Z" fill="white"/>
<path fill-rule="evenodd" clip-rule="evenodd" d="M127.14 158.46L131.45 152.08L129.39 150.71L123.85 156.39C123.97 157.24 123.89 157.99 123.6 158.61L124.7 159.34C125.22 158.87 126.26 158.64 127.14 158.46ZM124.44 160.33H122.81V158.78C123.27 158.15 123.41 157.3 123.21 156.23L129.27 149.93L132.27 151.92L127.53 158.97C126.63 159.12 125.27 159.56 124.8 159.99L124.43 160.33H124.44ZM124.94 155.28L127.84 157.44L127.49 157.94L124.5 155.72L124.94 155.28Z" fill="#363B3E"/>
<path fill-rule="evenodd" clip-rule="evenodd" d="M136.52 154.189H141.25L138.89 156.549L136.52 154.189Z" fill="#1A1A1A"/>
<path d="M167.27 145.67H152.13C151.086 145.67 150.24 146.516 150.24 147.56V162.7C150.24 163.744 151.086 164.59 152.13 164.59H167.27C168.314 164.59 169.16 163.744 169.16 162.7V147.56C169.16 146.516 168.314 145.67 167.27 145.67Z" fill="#F4F4F4"/>
<path fill-rule="evenodd" clip-rule="evenodd" d="M159.7 151.82V158.44H161.59V158.91H157.33V158.44H159.23V151.82H156.39V153.24H155.91V151.34H163.01V153.24H162.53V151.82H159.69H159.7Z" fill="#1A1A1A"/>
<path d="M199.42 145.67H174.83C173.786 145.67 172.94 146.516 172.94 147.56V162.7C172.94 163.744 173.786 164.59 174.83 164.59H199.42C200.464 164.59 201.31 163.744 201.31 162.7V147.56C201.31 146.516 200.464 145.67 199.42 145.67Z" fill="#F4F4F4"/>
<path fill-rule="evenodd" clip-rule="evenodd" d="M186.18 151.35H178.61V158.91H186.18V151.35ZM178.14 150.88V159.38H186.64V150.88H178.14ZM191.38 154.19H196.11L193.74 156.55L191.38 154.19Z" fill="#1A1A1A"/>
<path d="M222.12 145.67H206.98C205.936 145.67 205.09 146.516 205.09 147.56V162.7C205.09 163.744 205.936 164.59 206.98 164.59H222.12C223.164 164.59 224.01 163.744 224.01 162.7V147.56C224.01 146.516 223.164 145.67 222.12 145.67Z" fill="#F4F4F4"/>
<path fill-rule="evenodd" clip-rule="evenodd" d="M218.33 151.35V158.91H210.77V151.35H218.33ZM212.9 155.26L211.24 156.43V158.44H217.86V157.81L216.11 156.21L214.74 157.16L212.9 155.26ZM217.86 151.82H211.24V155.87L212.96 154.66L214.8 156.56L216.15 155.63L217.86 157.19V151.82ZM216.44 152.77C216.572 152.756 216.706 152.77 216.832 152.812C216.959 152.853 217.075 152.92 217.174 153.009C217.272 153.098 217.351 153.207 217.405 153.329C217.459 153.45 217.487 153.582 217.487 153.715C217.487 153.848 217.459 153.979 217.405 154.101C217.351 154.222 217.272 154.331 217.174 154.42C217.075 154.509 216.959 154.576 216.832 154.618C216.706 154.659 216.572 154.673 216.44 154.66C216.188 154.66 215.946 154.56 215.768 154.381C215.59 154.203 215.49 153.962 215.49 153.71C215.49 153.458 215.59 153.216 215.768 153.038C215.946 152.86 216.188 152.76 216.44 152.76V152.77Z" fill="#1A1A1A"/>
</g>
<path fill-rule="evenodd" clip-rule="evenodd" d="M142.55 387.43L152.35 393.27L149.87 394.94L152.47 398.51L149.99 400.18L147.39 396.61L144.91 398.28L142.55 387.43Z" fill="#1A1A1A"/>
<path d="M419.04 224.03H417.18C400.137 224.03 386.32 237.847 386.32 254.89V254.9C386.32 271.944 400.137 285.76 417.18 285.76H419.04C436.084 285.76 449.9 271.944 449.9 254.9V254.89C449.9 237.847 436.084 224.03 419.04 224.03Z" fill="#CCDDFF"/>
<path d="M385.63 223.34H450.67V286.36H385.63V223.34Z" stroke="#0055FF" stroke-width="0.46"/>
<path d="M384 221.71H387.71V225.43H384V221.71Z" fill="white"/>
<path d="M384 221.71V221.25H383.54V221.71H384ZM387.71 221.71H388.18V221.25H387.71V221.71ZM387.71 225.43V225.89H388.18V225.43H387.71ZM384 225.43H383.54V225.89H384V225.43ZM384 222.18H387.71V221.25H384V222.18ZM387.25 221.71V225.43H388.18V221.71H387.25ZM387.71 224.96H384V225.89H387.71V224.96ZM384.46 225.43V221.71H383.54V225.43H384.46Z" fill="#0055FF"/>
<path d="M384 284.29H387.71V288H384V284.29Z" fill="white"/>
<path d="M384 284.29V283.82H383.54V284.29H384ZM387.71 284.29H388.18V283.82H387.71V284.29ZM387.71 288V288.46H388.18V288H387.71ZM384 288H383.54V288.46H384V288ZM384 284.75H387.71V283.82H384V284.75ZM387.25 284.29V288H388.18V284.29H387.25ZM387.71 287.54H384V288.46H387.71V287.54ZM384.46 288V284.29H383.54V288H384.46Z" fill="#0055FF"/>
<path d="M416.29 284.29H420V288H416.29V284.29Z" fill="white"/>
<path d="M416.29 284.29V283.82H415.82V284.29H416.29ZM420 284.29H420.46V283.82H420V284.29ZM420 288V288.46H420.46V288H420ZM416.29 288H415.82V288.46H416.29V288ZM416.29 284.75H420V283.82H416.29V284.75ZM419.54 284.29V288H420.46V284.29H419.54ZM420 287.54H416.29V288.46H420V287.54ZM416.75 288V284.29H415.82V288H416.75Z" fill="#0055FF"/>
<path d="M416.29 221.71H420V225.43H416.29V221.71Z" fill="white"/>
<path d="M416.29 221.71V221.25H415.82V221.71H416.29ZM420 221.71H420.46V221.25H420V221.71ZM420 225.43V225.89H420.46V225.43H420ZM416.29 225.43H415.82V225.89H416.29V225.43ZM416.29 222.18H420V221.25H416.29V222.18ZM419.54 221.71V225.43H420.46V221.71H419.54ZM420 224.96H416.29V225.89H420V224.96ZM416.75 225.43V221.71H415.82V225.43H416.75Z" fill="#0055FF"/>
<path d="M448.57 253H452.29V256.71H448.57V253Z" fill="white"/>
<path d="M448.57 253V252.54H448.11V253H448.57ZM452.29 253H452.75V252.54H452.29V253ZM452.29 256.71V257.18H452.75V256.71H452.29ZM448.57 256.71H448.11V257.18H448.57V256.71ZM448.57 253.46H452.29V252.54H448.57V253.46ZM451.82 253V256.71H452.75V253H451.82ZM452.29 256.25H448.57V257.18H452.29V256.25ZM449.04 256.71V253H448.11V256.71H449.04Z" fill="#0055FF"/>
<path d="M384 253H387.71V256.71H384V253Z" fill="white"/>
<path d="M384 253V252.54H383.54V253H384ZM387.71 253H388.18V252.54H387.71V253ZM387.71 256.71V257.18H388.18V256.71H387.71ZM384 256.71H383.54V257.18H384V256.71ZM384 253.46H387.71V252.54H384V253.46ZM387.25 253V256.71H388.18V253H387.25ZM387.71 256.25H384V257.18H387.71V256.25ZM384.46 256.71V253H383.54V256.71H384.46Z" fill="#0055FF"/>
<path d="M448.57 284.29H452.29V288H448.57V284.29Z" fill="white"/>
<path d="M448.57 284.29V283.82H448.11V284.29H448.57ZM452.29 284.29H452.75V283.82H452.29V284.29ZM452.29 288V288.46H452.75V288H452.29ZM448.57 288H448.11V288.46H448.57V288ZM448.57 284.75H452.29V283.82H448.57V284.75ZM451.82 284.29V288H452.75V284.29H451.82ZM452.29 287.54H448.57V288.46H452.29V287.54ZM449.04 288V284.29H448.11V288H449.04Z" fill="#0055FF"/>
<path d="M448.57 221.71H452.29V225.43H448.57V221.71Z" fill="white"/>
<path d="M448.57 221.71V221.25H448.11V221.71H448.57ZM452.29 221.71H452.75V221.25H452.29V221.71ZM452.29 225.43V225.89H452.75V225.43H452.29ZM448.57 225.43H448.11V225.89H448.57V225.43ZM448.57 222.18H452.29V221.25H448.57V222.18ZM451.82 221.71V225.43H452.75V221.71H451.82ZM452.29 224.96H448.57V225.89H452.29V224.96ZM449.04 225.43V221.71H448.11V225.43H449.04Z" fill="#0055FF"/>
<path d="M147 271.84H186.04V297.86H147V271.84Z" stroke="#0055FF" stroke-width="0.46"/>
<path d="M145.38 270.21H149.09V273.93H145.38V270.21Z" fill="white"/>
<path d="M145.38 270.21V269.75H144.91V270.21H145.38ZM149.09 270.21H149.56V269.75H149.09V270.21ZM149.09 273.93V274.39H149.56V273.93H149.09ZM145.38 273.93H144.91V274.39H145.38V273.93ZM145.38 270.68H149.09V269.75H145.38V270.68ZM148.63 270.21V273.93H149.56V270.21H148.63ZM149.09 273.46H145.38V274.39H149.09V273.46ZM145.84 273.93V270.21H144.91V273.93H145.84Z" fill="#0055FF"/>
<path d="M145.38 295.79H149.09V299.5H145.38V295.79Z" fill="white"/>
<path d="M145.38 295.79V295.32H144.91V295.79H145.38ZM149.09 295.79H149.56V295.32H149.09V295.79ZM149.09 299.5V299.96H149.56V299.5H149.09ZM145.38 299.5H144.91V299.96H145.38V299.5ZM145.38 296.25H149.09V295.32H145.38V296.25ZM148.63 295.79V299.5H149.56V295.79H148.63ZM149.09 299.04H145.38V299.96H149.09V299.04ZM145.84 299.5V295.79H144.91V299.5H145.84Z" fill="#0055FF"/>
<path d="M164.67 295.79H168.37V299.5H164.67V295.79Z" fill="white"/>
<path d="M164.67 295.79V295.32H164.2V295.79H164.67ZM168.37 295.79H168.84V295.32H168.38V295.79H168.37ZM168.37 299.5V299.96H168.84V299.5H168.38H168.37ZM164.67 299.5H164.2V299.96H164.67V299.5ZM164.67 296.25H168.37V295.32H164.67V296.25ZM167.92 295.79V299.5H168.84V295.79H167.91H167.92ZM168.38 299.04H164.67V299.96H168.37V299.04H168.38ZM165.13 299.5V295.79H164.2V299.5H165.13Z" fill="#0055FF"/>
<path d="M164.67 270.21H168.37V273.93H164.67V270.21Z" fill="white"/>
<path d="M164.67 270.21V269.75H164.2V270.21H164.67ZM168.37 270.21H168.84V269.75H168.38V270.21H168.37ZM168.37 273.93V274.39H168.84V273.93H168.38H168.37ZM164.67 273.93H164.2V274.39H164.67V273.93ZM164.67 270.68H168.37V269.75H164.67V270.68ZM167.92 270.21V273.93H168.84V270.21H167.91H167.92ZM168.38 273.46H164.67V274.39H168.37V273.46H168.38ZM165.13 273.93V270.21H164.2V273.93H165.13Z" fill="#0055FF"/>
<path d="M183.95 283.5H187.67V287.21H183.95V283.5Z" fill="white"/>
<path d="M183.95 283.5V283.04H183.49V283.5H183.95ZM187.67 283.5H188.13V283.04H187.67V283.5ZM187.67 287.21V287.68H188.13V287.21H187.67ZM183.95 287.21H183.49V287.68H183.95V287.21ZM183.95 283.96H187.67V283.04H183.95V283.96ZM187.2 283.5V287.21H188.13V283.5H187.2ZM187.67 286.75H183.95V287.68H187.67V286.75ZM184.42 287.21V283.5H183.49V287.21H184.42Z" fill="#0055FF"/>
<path d="M145.38 283.5H149.09V287.21H145.38V283.5Z" fill="white"/>
<path d="M145.38 283.5V283.04H144.91V283.5H145.38ZM149.09 283.5H149.56V283.04H149.09V283.5ZM149.09 287.21V287.68H149.56V287.21H149.09ZM145.38 287.21H144.91V287.68H145.38V287.21ZM145.38 283.96H149.09V283.04H145.38V283.96ZM148.63 283.5V287.21H149.56V283.5H148.63ZM149.09 286.75H145.38V287.68H149.09V286.75ZM145.84 287.21V283.5H144.91V287.21H145.84Z" fill="#0055FF"/>
<path d="M183.95 295.79H187.67V299.5H183.95V295.79Z" fill="white"/>
<path d="M183.95 295.79V295.32H183.49V295.79H183.95ZM187.67 295.79H188.13V295.32H187.67V295.79ZM187.67 299.5V299.96H188.13V299.5H187.67ZM183.95 299.5H183.49V299.96H183.95V299.5ZM183.95 296.25H187.67V295.32H183.95V296.25ZM187.2 295.79V299.5H188.13V295.79H187.2ZM187.67 299.04H183.95V299.96H187.67V299.04ZM184.42 299.5V295.79H183.49V299.5H184.42Z" fill="#0055FF"/>
<path d="M183.95 270.21H187.67V273.93H183.95V270.21Z" fill="white"/>
<path d="M183.95 270.21V269.75H183.49V270.21H183.95ZM187.67 270.21H188.13V269.75H187.67V270.21ZM187.67 273.93V274.39H188.13V273.93H187.67ZM183.95 273.93H183.49V274.39H183.95V273.93ZM183.95 270.68H187.67V269.75H183.95V270.68ZM187.2 270.21V273.93H188.13V270.21H187.2ZM187.67 273.46H183.95V274.39H187.67V273.46ZM184.42 273.93V270.21H183.49V273.93H184.42Z" fill="#0055FF"/>
<path d="M156.36 278.38C156.34 278.85 156.34 279.33 156.34 279.81V283.24C156.34 283.72 156.34 284.2 156.36 284.68L157.38 284.8V285.26H154.24V284.8L155.27 284.68L155.29 283.26V281.7H151.66V283.25C151.66 283.74 151.66 284.21 151.68 284.68L152.72 284.8V285.26H149.56V284.8L150.59 284.68L150.61 283.26V279.82C150.61 279.35 150.61 278.87 150.59 278.38L149.56 278.26V277.81H152.72V278.26L151.68 278.39L151.66 279.78V281.18H155.29V279.78C155.29 279.32 155.29 278.85 155.27 278.38L154.24 278.26V277.81H157.38V278.26L156.36 278.39V278.38ZM161.46 282.08C161.72 282.08 161.9 282.03 161.99 281.92C162.082 281.8 162.128 281.651 162.12 281.5C162.12 281.35 162.09 281.2 162.02 281.06C161.967 280.91 161.881 280.774 161.77 280.66C161.661 280.544 161.529 280.453 161.383 280.391C161.236 280.329 161.079 280.298 160.92 280.3C160.743 280.302 160.567 280.34 160.404 280.41C160.241 280.481 160.094 280.582 159.97 280.71C159.84 280.86 159.72 281.04 159.62 281.27C159.52 281.49 159.46 281.77 159.42 282.08H161.46ZM159.41 282.56C159.42 283.26 159.59 283.78 159.91 284.16C160.25 284.53 160.68 284.71 161.21 284.71C161.57 284.71 161.86 284.64 162.11 284.49C162.34 284.34 162.56 284.15 162.76 283.91L163.03 284.12C162.83 284.52 162.55 284.84 162.19 285.08C161.83 285.31 161.4 285.43 160.89 285.43C160.51 285.43 160.17 285.36 159.86 285.23C159.56 285.11 159.3 284.93 159.08 284.69C158.857 284.432 158.687 284.133 158.58 283.81C158.327 283.063 158.334 282.252 158.6 281.51C158.715 281.18 158.896 280.877 159.131 280.619C159.367 280.362 159.652 280.154 159.97 280.01C160.536 279.748 161.183 279.72 161.77 279.93C162.025 280.02 162.256 280.165 162.448 280.355C162.64 280.546 162.788 280.776 162.88 281.03C163.044 281.425 163.096 281.857 163.03 282.28L162.97 282.56H159.41ZM166.7 284.86V285.26H163.96V284.86L164.84 284.7C164.862 284.107 164.869 283.513 164.86 282.92V278.14L163.95 278.03V277.63L165.69 277.13L165.84 277.23L165.8 278.81V283.81L165.82 284.71L166.7 284.86ZM170.23 284.86V285.26H167.49V284.86L168.37 284.7C168.39 284.107 168.397 283.513 168.39 282.92V278.14L167.48 278.03V277.63L169.22 277.13L169.37 277.23L169.33 278.81V283.81L169.35 284.71L170.23 284.86ZM173.8 280.3C173.3 280.3 172.93 280.5 172.67 280.9C172.41 281.3 172.27 281.87 172.27 282.63C172.27 283.38 172.41 283.95 172.67 284.35C172.93 284.73 173.3 284.92 173.79 284.92C174.28 284.92 174.65 284.73 174.91 284.35C175.17 283.95 175.3 283.38 175.3 282.63C175.3 281.87 175.17 281.3 174.9 280.9C174.65 280.5 174.28 280.3 173.8 280.3ZM173.8 279.79C174.11 279.79 174.43 279.85 174.73 279.98C175.04 280.1 175.32 280.28 175.55 280.52C176.073 281.094 176.358 281.844 176.35 282.62C176.35 283.09 176.28 283.49 176.13 283.84C176.011 284.16 175.824 284.451 175.583 284.692C175.341 284.934 175.05 285.121 174.73 285.24C174.108 285.485 173.414 285.475 172.799 285.213C172.183 284.951 171.695 284.458 171.44 283.84C171.296 283.453 171.228 283.042 171.24 282.63C171.217 282.243 171.276 281.856 171.414 281.494C171.552 281.132 171.765 280.803 172.04 280.53C172.27 280.294 172.545 280.107 172.85 279.979C173.154 279.852 173.48 279.788 173.81 279.79H173.8ZM178.68 285.43C178.49 285.427 178.308 285.351 178.174 285.216C178.039 285.082 177.963 284.9 177.96 284.71C177.96 284.51 178.03 284.34 178.17 284.2C178.235 284.129 178.314 284.073 178.402 284.035C178.489 283.998 178.584 283.979 178.68 283.98C178.88 283.98 179.05 284.05 179.18 284.2C179.32 284.34 179.4 284.5 179.4 284.7C179.4 284.9 179.32 285.07 179.18 285.21C179.117 285.28 179.04 285.336 178.954 285.374C178.868 285.412 178.774 285.431 178.68 285.43ZM178.68 277.63C178.88 277.63 179.03 277.69 179.14 277.81C179.26 277.91 179.32 278.1 179.32 278.34C179.32 278.54 179.29 278.9 179.24 279.41L179.04 281.34L178.88 282.85H178.48L178.33 281.34C178.261 280.696 178.187 280.053 178.11 279.41C178.06 278.91 178.04 278.55 178.04 278.34C178.04 278.1 178.1 277.92 178.21 277.81C178.338 277.694 178.507 277.633 178.68 277.64V277.63Z" fill="#333333"/>
<path d="M234.24 355.78H330.28V393.8H234.24V355.78Z" stroke="#0055FF" stroke-width="0.46"/>
<path d="M232.62 354.16H236.33V357.87H232.62V354.16Z" fill="white"/>
<path d="M232.62 354.16V353.69H232.15V354.16H232.62ZM236.33 354.16H236.79V353.69H236.33V354.16ZM236.33 357.87V358.34H236.79V357.87H236.33ZM232.62 357.87H232.15V358.34H232.62V357.87ZM232.62 354.62H236.33V353.69H232.62V354.62ZM235.87 354.16V357.87H236.79V354.16H235.87ZM236.33 357.41H232.62V358.34H236.33V357.41ZM233.08 357.87V354.16H232.15V357.87H233.08Z" fill="#0055FF"/>
<path d="M232.62 391.73H236.33V395.45H232.62V391.73Z" fill="white"/>
<path d="M232.62 391.73V391.27H232.15V391.73H232.62ZM236.33 391.73H236.79V391.27H236.33V391.73ZM236.33 395.45V395.91H236.79V395.45H236.33ZM232.62 395.45H232.15V395.91H232.62V395.45ZM232.62 392.2H236.33V391.27H232.62V392.2ZM235.87 391.73V395.45H236.79V391.73H235.87ZM236.33 394.98H232.62V395.91H236.33V394.98ZM233.08 395.45V391.73H232.15V395.45H233.08Z" fill="#0055FF"/>
<path d="M279.9 391.73H283.62V395.45H279.9V391.73Z" fill="white"/>
<path d="M279.9 391.73V391.27H279.44V391.73H279.9ZM283.62 391.73H284.08V391.27H283.62V391.73ZM283.62 395.45V395.91H284.08V395.45H283.62ZM279.9 395.45H279.44V395.91H279.9V395.45ZM279.9 392.2H283.62V391.27H279.9V392.2ZM283.15 391.73V395.45H284.08V391.73H283.15ZM283.62 394.98H279.9V395.91H283.62V394.98ZM280.37 395.45V391.73H279.44V395.45H280.37Z" fill="#0055FF"/>
<path d="M279.9 354.16H283.62V357.87H279.9V354.16Z" fill="white"/>
<path d="M279.9 354.16V353.69H279.44V354.16H279.9ZM283.62 354.16H284.08V353.69H283.62V354.16ZM283.62 357.87V358.34H284.08V357.87H283.62ZM279.9 357.87H279.44V358.34H279.9V357.87ZM279.9 354.62H283.62V353.69H279.9V354.62ZM283.15 354.16V357.87H284.08V354.16H283.15ZM283.62 357.41H279.9V358.34H283.62V357.41ZM280.37 357.87V354.16H279.44V357.87H280.37Z" fill="#0055FF"/>
<path d="M328.2 373.45H331.9V377.15H328.2V373.45Z" fill="white"/>
<path d="M328.2 373.45V372.98H327.73V373.45H328.19H328.2ZM331.9 373.45H332.37V372.98H331.9V373.45ZM331.9 377.15V377.62H332.37V377.16H331.9V377.15ZM328.2 377.15H327.73V377.62H328.19V377.16L328.2 377.15ZM328.2 373.91H331.9V372.98H328.2V373.91ZM331.44 373.45V377.15H332.37V373.45H331.44ZM331.9 376.7H328.2V377.62H331.9V376.69V376.7ZM328.66 377.16V373.45H327.73V377.15H328.66V377.16Z" fill="#0055FF"/>
<path d="M232.62 373.45H236.33V377.15H232.62V373.45Z" fill="white"/>
<path d="M232.62 373.45V372.98H232.15V373.45H232.62ZM236.33 373.45H236.79V372.98H236.33V373.45ZM236.33 377.15V377.62H236.79V377.16H236.33V377.15ZM232.62 377.15H232.15V377.62H232.62V377.16V377.15ZM232.62 373.91H236.33V372.98H232.62V373.91ZM235.87 373.45V377.15H236.79V373.45H235.87ZM236.33 376.7H232.62V377.62H236.33V376.69V376.7ZM233.08 377.16V373.45H232.15V377.15H233.08V377.16Z" fill="#0055FF"/>
<path d="M328.2 391.73H331.9V395.45H328.2V391.73Z" fill="white"/>
<path d="M328.2 391.73V391.27H327.73V391.73H328.19H328.2ZM331.9 391.73H332.37V391.27H331.9V391.73ZM331.9 395.45V395.91H332.37V395.45H331.9ZM328.2 395.45H327.73V395.91H328.19V395.45H328.2ZM328.2 392.2H331.9V391.27H328.2V392.2ZM331.44 391.73V395.45H332.37V391.73H331.44ZM331.9 394.98H328.2V395.91H331.9V394.98ZM328.66 395.45V391.73H327.73V395.45H328.66Z" fill="#0055FF"/>
<path d="M328.2 354.16H331.9V357.87H328.2V354.16Z" fill="white"/>
<path d="M328.2 354.16V353.69H327.73V354.16H328.19H328.2ZM331.9 354.16H332.37V353.69H331.9V354.16ZM331.9 357.87V358.34H332.37V357.87H331.9ZM328.2 357.87H327.73V358.34H328.19V357.87H328.2ZM328.2 354.62H331.9V353.69H328.2V354.62ZM331.44 354.16V357.87H332.37V354.16H331.44ZM331.9 357.41H328.2V358.34H331.9V357.41ZM328.66 357.87V354.16H327.73V357.87H328.66Z" fill="#0055FF"/>
<path fill-rule="evenodd" clip-rule="evenodd" d="M315.44 358.27C311.51 359.18 307.7 360.67 304.82 362.1C303.268 362.859 301.747 363.68 300.26 364.56C300.79 366.58 300.88 368.89 300.83 371.18C300.636 373.561 299.822 375.85 298.47 377.82C297.796 378.868 296.858 379.72 295.75 380.29C294.65 380.79 293.4 380.85 292.08 380.22C290.64 379.52 290.24 377.91 290.23 376.42C290.23 374.92 290.63 373.34 291.05 372.42C292.61 368.92 295.81 366.24 299.16 364.14C298.788 362.917 298.081 361.823 297.12 360.98C295.827 359.97 294.24 359.408 292.6 359.38C288.47 359.12 284.17 360.21 280.3 362.22C285.6 365.9 287.17 373.06 287.34 379.15C287.43 382.38 286.64 385.74 284.85 388.31C283.919 389.685 282.66 390.805 281.185 391.568C279.711 392.331 278.07 392.714 276.41 392.68C274.01 392.69 272.18 391.43 270.81 389.74C269.657 388.226 268.747 386.543 268.11 384.75C266.421 386.561 264.392 388.022 262.14 389.05C259.65 390.17 256.88 390.65 254.26 389.85C252.56 389.32 251.47 388.02 250.84 386.39C250.21 384.77 250 382.79 250.06 380.79C250.16 376.79 251.31 372.54 252.42 370.57C254.542 366.89 257.705 363.919 261.51 362.03C260.49 361.73 259.41 361.53 258.25 361.43C248.25 360.62 239.17 364.35 235.37 373.99C235.348 374.047 235.314 374.098 235.272 374.142C235.23 374.185 235.179 374.22 235.124 374.244C235.068 374.268 235.008 374.281 234.947 374.282C234.887 374.283 234.826 374.272 234.77 374.25C234.713 374.228 234.662 374.195 234.618 374.152C234.575 374.11 234.54 374.06 234.516 374.004C234.492 373.948 234.479 373.888 234.478 373.828C234.477 373.767 234.488 373.707 234.51 373.65C238.51 363.51 248.06 359.67 258.33 360.5C259.91 360.63 261.38 360.96 262.73 361.46C267.045 359.537 271.892 359.166 276.45 360.41C277.53 360.71 278.51 361.13 279.4 361.65C283.5 359.42 288.16 358.17 292.66 358.46C294.85 358.6 296.49 359.24 297.72 360.26C298.76 361.168 299.537 362.339 299.97 363.65C301.47 362.75 303 361.97 304.41 361.27C307.856 359.57 311.482 358.262 315.22 357.37C319.22 356.44 323.38 356.09 326.84 357.04C327.62 357.25 328.21 357.76 328.64 358.34C329.09 358.93 329.39 359.61 329.6 360.22C329.64 360.337 329.631 360.465 329.577 360.575C329.523 360.686 329.427 360.77 329.31 360.81C329.193 360.85 329.065 360.842 328.955 360.787C328.844 360.733 328.76 360.637 328.72 360.52C328.535 359.944 328.262 359.401 327.91 358.91C327.591 358.448 327.126 358.106 326.59 357.94C323.35 357.04 319.37 357.36 315.44 358.27ZM278.44 362.19C277.76 361.83 277 361.53 276.19 361.29C272.141 360.186 267.842 360.424 263.94 361.97C267.07 363.44 269.44 365.87 270.81 368.73C272.949 366.114 275.536 363.9 278.45 362.19H278.44ZM270.17 369.56C268.734 366.305 266.066 363.751 262.75 362.46C258.77 364.26 255.35 367.26 253.23 371.03C252.22 372.83 251.09 376.93 250.98 380.81C250.93 382.75 251.13 384.6 251.7 386.06C252.27 387.5 253.18 388.54 254.53 388.96C256.87 389.68 259.4 389.26 261.76 388.21C264.043 387.166 266.08 385.653 267.74 383.77H267.75L267.47 382.93C266.09 378.58 266.93 374.45 269.39 370.69C269.64 370.31 269.89 369.93 270.17 369.56ZM268.44 382.91L268.36 382.65C267.07 378.6 267.84 374.77 270.16 371.2L270.57 370.6C271.9 374.5 271.37 379.04 268.44 382.91ZM268.8 383.96C270.451 382.022 271.549 379.674 271.976 377.164C272.404 374.654 272.146 372.076 271.23 369.7C273.462 366.861 276.231 364.489 279.38 362.72C284.59 366.04 286.24 372.98 286.41 379.18C286.5 382.26 285.74 385.41 284.09 387.78C283.244 389.033 282.096 390.054 280.752 390.748C279.408 391.441 277.912 391.786 276.4 391.75C274.37 391.76 272.79 390.71 271.53 389.15C270.346 387.575 269.424 385.819 268.8 383.95V383.96ZM299.43 365.07C296.22 367.11 293.31 369.62 291.89 372.8C291.418 373.953 291.17 375.185 291.16 376.43C291.16 377.83 291.56 378.93 292.48 379.38C293.55 379.88 294.5 379.83 295.36 379.44C296.317 378.94 297.127 378.199 297.71 377.29C298.96 375.471 299.717 373.359 299.91 371.16C299.95 369 299.87 366.89 299.43 365.07Z" fill="#F23030"/>
<path d="M545.2 384.71H512.88C510.671 384.71 508.88 386.501 508.88 388.71V421.03C508.88 423.239 510.671 425.03 512.88 425.03H545.2C547.409 425.03 549.2 423.239 549.2 421.03V388.71C549.2 386.501 547.409 384.71 545.2 384.71Z" fill="#F23030"/>
<path fill-rule="evenodd" clip-rule="evenodd" d="M520.7 396.51L522.74 404.71L520.69 412.91L528.89 410.86L537.09 412.91L535.03 404.71L537.08 396.51L528.88 398.56L520.69 396.51H520.7ZM518.99 394.81L528.89 397.29L538.79 394.81L536.31 404.71L538.78 414.61L528.88 412.13L518.99 414.61L521.46 404.71L518.99 394.81Z" fill="white"/>
<path d="M493.24 405.32H461.82C459.611 405.32 457.82 407.111 457.82 409.32V440.74C457.82 442.949 459.611 444.74 461.82 444.74H493.24C495.449 444.74 497.24 442.949 497.24 440.74V409.32C497.24 407.111 495.449 405.32 493.24 405.32Z" fill="#3D99F5"/>
<path fill-rule="evenodd" clip-rule="evenodd" d="M479.97 415.64H468.14V430.69H475.67V434.99H487.5V419.94H479.97V415.64ZM486.42 421.02H479.97V426.39H485.34V427.47H479.97V428.54H485.34V429.62H479.97V430.69H485.35V431.77H477.82V430.69H476.74V433.92H486.42V421.02ZM478.89 429.62H469.22V416.72H478.89V429.62Z" fill="white"/>
<path d="M494.14 362.31H472.57C470.361 362.31 468.57 364.1 468.57 366.31V387.88C468.57 390.089 470.361 391.88 472.57 391.88H494.14C496.349 391.88 498.14 390.089 498.14 387.88V366.31C498.14 364.1 496.349 362.31 494.14 362.31Z" fill="#7961F2"/>
<path fill-rule="evenodd" clip-rule="evenodd" d="M482.76 370.86H477.12V376.5H482.76V370.86ZM477.93 375.7V371.67H481.96V375.7H477.93ZM490.02 378.12H484.37V383.76H490.02V378.12ZM485.18 378.92V382.96H489.21V378.92H485.18ZM488.41 370.86H490.01V371.66H488.41V370.86ZM482.76 378.12H481.15V378.92H482.76V378.12ZM485.99 370.86H487.6V371.66H485.99V370.86ZM480.34 378.12H478.74V378.92H480.34V378.12ZM484.37 375.7H486V376.5H484.38V375.7H484.37ZM478.73 382.96H477.12V383.76H478.73V382.96ZM486.79 375.7H488.41V376.5H486.79V375.7ZM481.15 382.96H479.54V383.76H481.14V382.96H481.15ZM484.37 370.86H485.18V372.47H484.38V370.87L484.37 370.86ZM477.92 378.12H477.12V379.73H477.92V378.12ZM489.22 372.47H490.02V374.09H489.22V372.47ZM482.76 379.73H481.96V381.34H482.76V379.73ZM484.37 373.28H485.18V374.89H484.38V373.28H484.37ZM477.92 380.54H477.12V382.14H477.92V380.54ZM489.22 374.89H490.02V376.51H489.22V374.89ZM482.76 382.15H481.96V383.76H482.76V382.15Z" fill="white"/>
<path fill-rule="evenodd" clip-rule="evenodd" d="M242.8 89.0503C242.8 90.2385 242.328 91.378 241.488 92.2182C240.648 93.0583 239.508 93.5303 238.32 93.5303C237.132 93.5303 235.992 93.0583 235.152 92.2182C234.312 91.378 233.84 90.2385 233.84 89.0503C233.84 87.8621 234.312 86.7226 235.152 85.8825C235.992 85.0423 237.132 84.5703 238.32 84.5703C239.508 84.5703 240.648 85.0423 241.488 85.8825C242.328 86.7226 242.8 87.8621 242.8 89.0503ZM236.08 89.0503C236.08 89.6444 236.316 90.2142 236.736 90.6342C237.156 91.0543 237.726 91.2903 238.32 91.2903C238.914 91.2903 239.484 91.0543 239.904 90.6342C240.324 90.2142 240.56 89.6444 240.56 89.0503C240.56 88.4562 240.324 87.8865 239.904 87.4664C239.484 87.0463 238.914 86.8103 238.32 86.8103C237.726 86.8103 237.156 87.0463 236.736 87.4664C236.316 87.8865 236.08 88.4562 236.08 89.0503ZM549.2 367.69C549.2 368.878 548.728 370.018 547.888 370.858C547.048 371.698 545.908 372.17 544.72 372.17C543.532 372.17 542.392 371.698 541.552 370.858C540.712 370.018 540.24 368.878 540.24 367.69C540.24 366.502 540.712 365.363 541.552 364.522C542.392 363.682 543.532 363.21 544.72 363.21C545.908 363.21 547.048 363.682 547.888 364.522C548.728 365.363 549.2 366.502 549.2 367.69ZM542.48 367.69C542.48 368.284 542.716 368.854 543.136 369.274C543.556 369.694 544.126 369.93 544.72 369.93C545.314 369.93 545.884 369.694 546.304 369.274C546.724 368.854 546.96 368.284 546.96 367.69C546.96 367.096 546.724 366.526 546.304 366.106C545.884 365.686 545.314 365.45 544.72 365.45C544.126 365.45 543.556 365.686 543.136 366.106C542.716 366.526 542.48 367.096 542.48 367.69Z" fill="#FFB700"/>
<path fill-rule="evenodd" clip-rule="evenodd" d="M45.1 304.27C45.0084 304.364 44.8992 304.438 44.7787 304.489C44.6582 304.54 44.5287 304.567 44.3979 304.568C44.267 304.568 44.1374 304.543 44.0163 304.493C43.8953 304.443 43.7854 304.37 43.6929 304.278C43.6003 304.185 43.5271 304.075 43.4773 303.954C43.4275 303.833 43.4022 303.703 43.4029 303.573C43.4036 303.442 43.4302 303.312 43.4811 303.192C43.5321 303.071 43.6065 302.962 43.7 302.87L45.8 300.78C45.8915 300.687 46.0007 300.613 46.1213 300.562C46.2418 300.511 46.3712 300.484 46.502 300.483C46.6329 300.483 46.7626 300.508 46.8836 300.558C47.0046 300.608 47.1145 300.681 47.2071 300.773C47.2996 300.866 47.3729 300.976 47.4226 301.097C47.4724 301.218 47.4977 301.348 47.497 301.478C47.4964 301.609 47.4698 301.739 47.4188 301.859C47.3678 301.98 47.2934 302.089 47.2 302.18L45.1 304.28V304.27ZM38.81 302.17C38.7054 302.082 38.6205 301.972 38.5605 301.849C38.5005 301.726 38.4668 301.591 38.4614 301.454C38.4561 301.317 38.4793 301.181 38.5295 301.053C38.5797 300.926 38.6559 300.81 38.7532 300.713C38.8505 300.617 38.9668 300.541 39.0947 300.492C39.2226 300.443 39.3594 300.421 39.4963 300.427C39.6333 300.433 39.7674 300.468 39.8903 300.529C40.0131 300.59 40.122 300.675 40.21 300.78L42.31 302.88C42.4034 302.972 42.4778 303.081 42.5288 303.202C42.5798 303.322 42.6064 303.452 42.607 303.583C42.6077 303.713 42.5824 303.843 42.5326 303.964C42.4829 304.085 42.4096 304.195 42.3171 304.288C42.2245 304.38 42.1146 304.453 41.9936 304.503C41.8726 304.553 41.7429 304.578 41.612 304.578C41.4812 304.577 41.3518 304.55 41.2313 304.499C41.1107 304.448 41.0015 304.374 40.91 304.28L38.81 302.18V302.17ZM43.71 307.07C43.6165 306.979 43.5421 306.87 43.4911 306.749C43.4402 306.629 43.4136 306.499 43.4129 306.368C43.4122 306.238 43.4375 306.108 43.4873 305.987C43.5371 305.866 43.6103 305.756 43.7028 305.663C43.7954 305.571 43.9053 305.498 44.0263 305.448C44.1474 305.398 44.277 305.373 44.4079 305.373C44.5387 305.374 44.6682 305.401 44.7887 305.452C44.9092 305.503 45.0184 305.577 45.11 305.67L47.2 307.77C47.3825 307.957 47.4842 308.208 47.4829 308.468C47.4816 308.729 47.3774 308.979 47.1929 309.163C47.0085 309.348 46.7587 309.452 46.4979 309.453C46.2371 309.455 45.9862 309.353 45.8 309.17L43.7 307.07H43.71ZM38.81 309.17C38.9956 309.356 39.2474 309.46 39.51 309.46C39.7725 309.46 40.0243 309.356 40.21 309.17L42.31 307.07C42.4034 306.979 42.4778 306.87 42.5288 306.749C42.5798 306.629 42.6064 306.499 42.607 306.368C42.6077 306.238 42.5824 306.108 42.5326 305.987C42.4829 305.866 42.4096 305.756 42.3171 305.663C42.2245 305.571 42.1146 305.498 41.9936 305.448C41.8726 305.398 41.7429 305.373 41.612 305.373C41.4812 305.374 41.3518 305.401 41.2313 305.452C41.1107 305.503 41.0015 305.577 40.91 305.67L38.81 307.77C38.6243 307.956 38.52 308.208 38.52 308.47C38.52 308.733 38.6243 308.985 38.81 309.17Z" fill="#0055FF"/>
<path d="M83.396 122.776C83.396 121.944 83.576 121.204 83.936 120.556C84.296 119.9 84.796 119.392 85.436 119.032C86.084 118.664 86.816 118.48 87.632 118.48C88.632 118.48 89.488 118.744 90.2 119.272C90.912 119.8 91.388 120.52 91.628 121.432H89.372C89.204 121.08 88.964 120.812 88.652 120.628C88.348 120.444 88 120.352 87.608 120.352C86.976 120.352 86.464 120.572 86.072 121.012C85.68 121.452 85.484 122.04 85.484 122.776C85.484 123.512 85.68 124.1 86.072 124.54C86.464 124.98 86.976 125.2 87.608 125.2C88 125.2 88.348 125.108 88.652 124.924C88.964 124.74 89.204 124.472 89.372 124.12H91.628C91.388 125.032 90.912 125.752 90.2 126.28C89.488 126.8 88.632 127.06 87.632 127.06C86.816 127.06 86.084 126.88 85.436 126.52C84.796 126.152 84.296 125.644 83.936 124.996C83.576 124.348 83.396 123.608 83.396 122.776ZM94.9366 121.42C95.1766 121.052 95.4766 120.764 95.8366 120.556C96.1966 120.34 96.5966 120.232 97.0366 120.232V122.404H96.4726C95.9606 122.404 95.5766 122.516 95.3206 122.74C95.0646 122.956 94.9366 123.34 94.9366 123.892V127H92.8846V120.304H94.9366V121.42ZM97.6094 123.64C97.6094 122.952 97.7374 122.348 97.9934 121.828C98.2574 121.308 98.6134 120.908 99.0614 120.628C99.5094 120.348 100.009 120.208 100.561 120.208C101.033 120.208 101.445 120.304 101.797 120.496C102.157 120.688 102.433 120.94 102.625 121.252V120.304H104.677V127H102.625V126.052C102.425 126.364 102.145 126.616 101.785 126.808C101.433 127 101.021 127.096 100.549 127.096C100.005 127.096 99.5094 126.956 99.0614 126.676C98.6134 126.388 98.2574 125.984 97.9934 125.464C97.7374 124.936 97.6094 124.328 97.6094 123.64ZM102.625 123.652C102.625 123.14 102.481 122.736 102.193 122.44C101.913 122.144 101.569 121.996 101.161 121.996C100.753 121.996 100.405 122.144 100.117 122.44C99.8374 122.728 99.6974 123.128 99.6974 123.64C99.6974 124.152 99.8374 124.56 100.117 124.864C100.405 125.16 100.753 125.308 101.161 125.308C101.569 125.308 101.913 125.16 102.193 124.864C102.481 124.568 102.625 124.164 102.625 123.652ZM109.522 122.008H108.418V127H106.366V122.008H105.622V120.304H106.366V120.112C106.366 119.288 106.602 118.664 107.074 118.24C107.546 117.808 108.238 117.592 109.15 117.592C109.302 117.592 109.414 117.596 109.486 117.604V119.344C109.094 119.32 108.818 119.376 108.658 119.512C108.498 119.648 108.418 119.892 108.418 120.244V120.304H109.522V122.008ZM114.218 125.26V127H113.174C112.43 127 111.85 126.82 111.434 126.46C111.018 126.092 110.81 125.496 110.81 124.672V122.008H109.994V120.304H110.81V118.672H112.862V120.304H114.206V122.008H112.862V124.696C112.862 124.896 112.91 125.04 113.006 125.128C113.102 125.216 113.262 125.26 113.486 125.26H114.218Z" fill="black"/>
<path d="M124.901 118.576V127H122.849V121.948L120.965 127H119.309L117.413 121.936V127H115.361V118.576H117.785L120.149 124.408L122.489 118.576H124.901ZM133.217 120.304L129.017 130.18H126.809L128.345 126.772L125.621 120.304H127.913L129.461 124.492L130.997 120.304H133.217ZM137.115 118.576C138.003 118.576 138.779 118.752 139.443 119.104C140.107 119.456 140.619 119.952 140.979 120.592C141.347 121.224 141.531 121.956 141.531 122.788C141.531 123.612 141.347 124.344 140.979 124.984C140.619 125.624 140.103 126.12 139.431 126.472C138.767 126.824 137.995 127 137.115 127H133.959V118.576H137.115ZM136.983 125.224C137.759 125.224 138.363 125.012 138.795 124.588C139.227 124.164 139.443 123.564 139.443 122.788C139.443 122.012 139.227 121.408 138.795 120.976C138.363 120.544 137.759 120.328 136.983 120.328H136.011V125.224H136.983ZM145.726 127.096C145.07 127.096 144.478 126.956 143.95 126.676C143.43 126.396 143.018 125.996 142.714 125.476C142.418 124.956 142.27 124.348 142.27 123.652C142.27 122.964 142.422 122.36 142.726 121.84C143.03 121.312 143.446 120.908 143.974 120.628C144.502 120.348 145.094 120.208 145.75 120.208C146.406 120.208 146.998 120.348 147.526 120.628C148.054 120.908 148.47 121.312 148.774 121.84C149.078 122.36 149.23 122.964 149.23 123.652C149.23 124.34 149.074 124.948 148.762 125.476C148.458 125.996 148.038 126.396 147.502 126.676C146.974 126.956 146.382 127.096 145.726 127.096ZM145.726 125.32C146.118 125.32 146.45 125.176 146.722 124.888C147.002 124.6 147.142 124.188 147.142 123.652C147.142 123.116 147.006 122.704 146.734 122.416C146.47 122.128 146.142 121.984 145.75 121.984C145.35 121.984 145.018 122.128 144.754 122.416C144.49 122.696 144.358 123.108 144.358 123.652C144.358 124.188 144.486 124.6 144.742 124.888C145.006 125.176 145.334 125.32 145.726 125.32ZM149.91 123.652C149.91 122.956 150.05 122.348 150.33 121.828C150.618 121.308 151.014 120.908 151.518 120.628C152.03 120.348 152.614 120.208 153.27 120.208C154.11 120.208 154.81 120.428 155.37 120.868C155.938 121.308 156.31 121.928 156.486 122.728H154.302C154.118 122.216 153.762 121.96 153.234 121.96C152.858 121.96 152.558 122.108 152.334 122.404C152.11 122.692 151.998 123.108 151.998 123.652C151.998 124.196 152.11 124.616 152.334 124.912C152.558 125.2 152.858 125.344 153.234 125.344C153.762 125.344 154.118 125.088 154.302 124.576H156.486C156.31 125.36 155.938 125.976 155.37 126.424C154.802 126.872 154.102 127.096 153.27 127.096C152.614 127.096 152.03 126.956 151.518 126.676C151.014 126.396 150.618 125.996 150.33 125.476C150.05 124.956 149.91 124.348 149.91 123.652Z" fill="#7961F2"/>
</g>
<defs>
<filter id="filter0_d_135_970" x="130.456" y="392.007" width="24.6347" height="26.6521" filterUnits="userSpaceOnUse" color-interpolation-filters="sRGB">
<feFlood flood-opacity="0" result="BackgroundImageFix"/>
<feColorMatrix in="SourceAlpha" type="matrix" values="0 0 0 0 0 0 0 0 0 0 0 0 0 0 0 0 0 0 127 0" result="hardAlpha"/>
<feOffset dy="0.88"/>
<feGaussianBlur stdDeviation="1.32"/>
<feColorMatrix type="matrix" values="0 0 0 0 0 0 0 0 0 0 0 0 0 0 0 0 0 0 0.2 0"/>
<feBlend mode="normal" in2="BackgroundImageFix" result="effect1_dropShadow_135_970"/>
<feBlend mode="normal" in="SourceGraphic" in2="effect1_dropShadow_135_970" result="shape"/>
</filter>
<filter id="filter1_d_135_970" x="111.49" y="191.48" width="364.78" height="235.75" filterUnits="userSpaceOnUse" color-interpolation-filters="sRGB">
<feFlood flood-opacity="0" result="BackgroundImageFix"/>
<feColorMatrix in="SourceAlpha" type="matrix" values="0 0 0 0 0 0 0 0 0 0 0 0 0 0 0 0 0 0 127 0" result="hardAlpha"/>
<feOffset/>
<feGaussianBlur stdDeviation="0.46"/>
<feColorMatrix type="matrix" values="0 0 0 0 0.101961 0 0 0 0 0.101961 0 0 0 0 0.101961 0 0 0 0.2 0"/>
<feBlend mode="normal" in2="BackgroundImageFix" result="effect1_dropShadow_135_970"/>
<feBlend mode="normal" in="SourceGraphic" in2="effect1_dropShadow_135_970" result="shape"/>
</filter>
<clipPath id="clip0_135_970">
<rect width="600" height="520" fill="white"/>
</clipPath>
</defs>
</svg>
