<svg width="1000" height="1001" viewBox="0 0 1000 1001" fill="none" xmlns="http://www.w3.org/2000/svg">
<path fill-rule="evenodd" clip-rule="evenodd" d="M933.825 830.631C906.045 915.145 797.204 957.293 719.443 950.266C613.242 940.655 497.681 884.264 409.961 822.155C281.02 730.854 160.239 589.625 89.858 439.759C40.1177 333.862 28.9577 203.662 102.938 107.135C130.299 71.4557 159.879 52.4001 204.339 50.1776C266.019 47.1743 274.66 82.4995 295.84 137.52C311.62 178.666 332.68 220.637 344.44 263.285C366.46 342.873 289.48 346.199 279.76 411.251C273.7 452.277 323.38 507.294 345.82 536.546C389.801 593.849 442.661 643.274 502.301 680.876C536.442 702.44 591.582 741.298 630.702 719.854C690.943 686.818 685.243 585.13 769.483 619.548C813.104 637.328 855.344 662.986 896.984 685.451C961.365 720.109 958.365 756.029 933.825 830.631C952.185 774.89 915.465 886.373 933.825 830.631Z" fill="black"/>
</svg>
