<svg width="1000" height="1001" viewBox="0 0 1000 1001" fill="none" xmlns="http://www.w3.org/2000/svg">
<path d="M252.5 913H746.5C779.254 913 810.667 899.978 833.828 876.798C856.988 853.619 870 822.181 870 789.4V295C870 273.146 861.326 252.187 845.885 236.734C830.445 221.281 809.503 212.6 787.667 212.6H705.333V130.2C705.333 119.273 700.996 108.794 693.276 101.067C685.556 93.3407 675.085 89 664.167 89C653.249 89 642.778 93.3407 635.057 101.067C627.337 108.794 623 119.273 623 130.2V212.6H376V130.2C376 119.273 371.663 108.794 363.943 101.067C356.222 93.3407 345.751 89 334.833 89C323.915 89 313.444 93.3407 305.724 101.067C298.004 108.794 293.667 119.273 293.667 130.2V212.6H211.333C189.497 212.6 168.555 221.281 153.115 236.734C137.674 252.187 129 273.146 129 295V789.4C129 822.181 142.012 853.619 165.172 876.798C188.333 899.978 219.746 913 252.5 913ZM211.333 521.6C211.333 516.137 213.502 510.897 217.362 507.034C221.222 503.17 226.458 501 231.917 501H767.083C772.542 501 777.778 503.17 781.638 507.034C785.498 510.897 787.667 516.137 787.667 521.6V789.4C787.667 800.327 783.33 810.806 775.609 818.533C767.889 826.259 757.418 830.6 746.5 830.6H252.5C241.582 830.6 231.111 826.259 223.391 818.533C215.671 810.806 211.333 800.327 211.333 789.4V521.6Z" fill="black"/>
</svg>
