<svg width="1000" height="1001" viewBox="0 0 1000 1001" fill="none" xmlns="http://www.w3.org/2000/svg">
<path fill-rule="evenodd" clip-rule="evenodd" d="M500 101C720.92 101 900 284.597 900 511.117C900 692.277 785.52 845.958 626.68 900.238C606.4 904.278 599.2 891.471 599.2 880.551C599.2 867.031 599.68 822.872 599.68 767.992C599.68 729.752 586.88 704.794 572.52 692.074C661.6 681.914 755.2 647.231 755.2 489.711C755.2 444.911 739.68 408.353 714 379.633C718.16 369.273 731.88 327.558 710.08 271.078C710.08 271.078 676.56 260.089 600.2 313.129C568.24 304.049 534 299.48 500 299.32C466 299.48 431.8 304.049 399.88 313.129C323.44 260.089 289.84 271.078 289.84 271.078C268.12 327.558 281.84 369.273 285.96 379.633C260.4 408.353 244.76 444.911 244.76 489.711C244.76 646.831 338.16 682.046 427 692.406C415.56 702.646 405.2 720.71 401.6 747.23C378.8 757.71 320.88 775.848 285.2 713.168C285.2 713.168 264.04 673.763 223.88 670.883C223.88 670.883 184.88 670.365 221.16 695.805C221.16 695.805 247.36 708.405 265.56 755.805C265.56 755.805 289.04 829.003 400.32 804.203C400.52 838.483 400.88 870.791 400.88 880.551C400.88 891.391 393.52 904.077 373.56 900.277C214.6 846.077 100 692.317 100 511.117C100 284.597 279.12 101 500 101Z" fill="black"/>
</svg>
