<svg width="1000" height="1001" viewBox="0 0 1000 1001" fill="none" xmlns="http://www.w3.org/2000/svg">
<path d="M500 51C251.445 51 50 252.445 50 501C50 749.555 251.445 951 500 951C748.555 951 950 749.555 950 501C950 252.445 748.555 51 500 51ZM374.141 689.262H286.426V408.539H374.141V689.262ZM327.91 373.383H327.207C295.391 373.383 274.824 351.938 274.824 324.691C274.824 296.918 296.094 276 328.437 276C360.781 276 380.645 296.918 381.348 324.691C381.523 351.762 360.957 373.383 327.91 373.383ZM725 689.262H625.508V544.066C625.508 506.098 610.039 480.082 575.762 480.082C549.57 480.082 534.98 497.66 528.301 514.535C525.84 520.512 526.191 528.949 526.191 537.562V689.262H427.578C427.578 689.262 428.809 431.918 427.578 408.539H526.191V452.66C531.992 433.324 563.457 405.902 613.73 405.902C676.133 405.902 725 446.332 725 533.168V689.262Z" fill="black"/>
</svg>
