<svg width="1000" height="1001" viewBox="0 0 1000 1001" fill="none" xmlns="http://www.w3.org/2000/svg">
<path fill-rule="evenodd" clip-rule="evenodd" d="M500 281.531C452.499 281.531 414 323.542 414 375.375C414 427.208 452.499 469.219 500 469.219C547.501 469.219 586 427.208 586 375.375C586 323.542 547.501 281.531 500 281.531ZM500 531.781C420.851 531.781 356.667 461.774 356.667 375.375C356.667 288.976 420.851 218.969 500 218.969C579.149 218.969 643.333 288.976 643.333 375.375C643.333 461.774 579.149 531.781 500 531.781ZM500 0C310.026 0 156 168.074 156 375.375C156 532.344 442.81 1001.34 500 1001C556.301 1001.34 844 530.217 844 375.375C844 168.074 689.974 0 500 0Z" fill="black"/>
</svg>
