<svg width="1000" height="1001" viewBox="0 0 1000 1001" fill="none" xmlns="http://www.w3.org/2000/svg">
<path d="M426 401C344 448 469 682 558 631L641 774C603 796 571 810 528 785C406 715 272 484 276 346C277 298 306 279 343 258C359 285 410 374 426 401ZM460 397C451 402 440 399 435 391L356 255C351 246 354 235 363 230L404 206C413 201 425 204 430 213L508 348C513 357 510 369 501 374L460 397ZM674 767C665 773 653 770 648 761L570 625C565 616 568 605 577 600L618 576C627 571 638 574 643 583L722 718C727 727 724 739 715 744L674 767ZM500 64C621 64 730 112 809 192C888 271 937 380 937 501C937 622 889 731 809 810C730 889 621 938 500 938C379 938 270 890 191 810C112 731 63 622 63 501C63 380 112 271 191 192C270 113 379 64 500 64ZM500 116C394 116 297 159 228 229C158 298 115 395 115 501C115 607 158 704 228 773C297 843 394 886 500 886C606 886 703 843 772 773C842 704 885 607 885 501C885 395 842 298 772 229C703 159 606 116 500 116Z" fill="black"/>
</svg>
