<svg width="1000" height="1001" viewBox="0 0 1000 1001" fill="none" xmlns="http://www.w3.org/2000/svg">
<path d="M875 301V326C875 329.316 873.683 332.495 871.339 334.839C868.995 337.183 865.815 338.5 862.5 338.5H825V357.25C825 367.605 816.605 376 806.25 376H193.75C183.395 376 175 367.605 175 357.25V338.5H137.5C134.185 338.5 131.005 337.183 128.661 334.839C126.317 332.495 125 329.316 125 326V301C125 298.527 125.734 296.11 127.108 294.054C128.482 291.998 130.435 290.396 132.72 289.45L495.22 151.95C498.281 150.683 501.719 150.683 504.78 151.95L867.28 289.45C869.565 290.396 871.518 291.998 872.892 294.054C874.266 296.11 875 298.527 875 301ZM837.5 776H162.5C141.789 776 125 792.789 125 813.5V838.5C125 841.816 126.317 844.995 128.661 847.339C131.005 849.683 134.185 851 137.5 851H862.5C865.815 851 868.995 849.683 871.339 847.339C873.683 844.995 875 841.816 875 838.5V813.5C875 792.789 858.211 776 837.5 776ZM250 401V701H193.75C183.395 701 175 709.396 175 719.75V751H825V719.75C825 709.396 816.605 701 806.25 701H750V401H650V701H550V401H450V701H350V401H250Z" fill="black"/>
</svg>
