<svg width="1000" height="1001" viewBox="0 0 1000 1001" fill="none" xmlns="http://www.w3.org/2000/svg">
<g clip-path="url(#clip0_15_84)">
<path d="M500 101C279.086 101 100 280.086 100 501C100 721.914 279.086 901 500 901C720.914 901 900 721.914 900 501C900 280.086 720.914 101 500 101ZM753.555 329.125H680.638C672.255 293.948 661.381 261.605 648.47 233.009C673.136 246.722 696.047 263.942 716.552 284.448C730.411 298.308 742.761 313.272 753.555 329.125ZM806.25 501C806.25 527.731 802.827 553.933 796.228 579.125H696.175C698.677 553.856 700 527.739 700 501C700 474.261 698.677 448.144 696.175 422.875H796.228C802.827 448.067 806.25 474.269 806.25 501ZM500 807.25C491.875 807.25 467.113 791.28 442.431 741.917C432.208 721.469 423.434 698.177 416.256 672.875H583.742C576.564 698.175 567.792 721.469 557.567 741.917C532.887 791.28 508.125 807.25 500 807.25ZM398.145 579.125C395.259 553.739 393.75 527.517 393.75 501C393.75 474.483 395.259 448.261 398.145 422.875H601.855C604.741 448.261 606.25 474.483 606.25 501C606.25 527.517 604.741 553.739 601.855 579.125H398.145ZM193.75 501C193.75 474.269 197.173 448.067 203.772 422.875H303.825C301.323 448.144 300 474.261 300 501C300 527.739 301.323 553.856 303.825 579.125H203.772C197.173 553.933 193.75 527.731 193.75 501ZM500 194.75C508.125 194.75 532.887 210.72 557.569 260.083C567.792 280.531 576.566 303.823 583.744 329.125H416.256C423.434 303.825 432.206 280.531 442.431 260.083C467.113 210.72 491.875 194.75 500 194.75ZM351.53 233.009C338.617 261.605 327.745 293.947 319.362 329.125H246.445C257.241 313.272 269.589 298.308 283.448 284.448C303.955 263.942 326.864 246.722 351.53 233.009ZM246.445 672.875H319.362C327.745 708.052 338.619 740.395 351.53 768.991C326.864 755.278 303.953 738.058 283.448 717.552C269.589 703.692 257.239 688.728 246.445 672.875ZM648.47 768.991C661.383 740.395 672.255 708.053 680.638 672.875H753.555C742.759 688.728 730.411 703.692 716.552 717.552C696.045 738.058 673.136 755.278 648.47 768.991Z" fill="black"/>
</g>
<defs>
<clipPath id="clip0_15_84">
<rect width="800" height="800" fill="white" transform="translate(100 101)"/>
</clipPath>
</defs>
</svg>
